<?xml version="1.0" encoding="UTF-8"?>
<svg version="1.1" xmlns="http://www.w3.org/2000/svg" width="365" height="72">
<path d="M0 0 C120.45 0 240.9 0 365 0 C365 23.76 365 47.52 365 72 C244.55 72 124.1 72 0 72 C0 48.24 0 24.48 0 0 Z " fill="#FDFEFE" transform="translate(0,0)"/>
<path d="M0 0 C7.65095457 6.15156604 11.88136227 15.2827573 16 24 C16.33 16.08 16.66 8.16 17 0 C18.65 0 20.3 0 22 0 C22 11.88 22 23.76 22 36 C19.66666667 36 17.33333333 36 15 36 C13.60439387 36.02001032 12.20880715 36.04138415 10.81323242 36.06347656 C5.9839106 36.13558916 1.15465284 36.18172435 -3.67504883 36.21972656 C-5.76139391 36.23985782 -7.84768247 36.26716533 -9.93383789 36.30175781 C-12.9417097 36.35033717 -15.94883847 36.37297823 -18.95703125 36.390625 C-20.35257988 36.42159271 -20.35257988 36.42159271 -21.77632141 36.45318604 C-26.0081637 36.45464876 -28.36917682 36.37804171 -32.06518555 34.16308594 C-36.22124559 29.51668948 -35.25818151 23.52036629 -35.3125 17.625 C-35.34150391 16.5834375 -35.37050781 15.541875 -35.40039062 14.46875 C-35.46433715 6.77549091 -35.46433715 6.77549091 -33.10546875 2.8359375 C-25.53325251 -3.76692267 -8.96763431 -2.89440665 0 0 Z " fill="#F0F5FD" transform="translate(52,21)"/>
<path d="M0 0 C3.16276067 2.08454681 4.73960201 3.58316596 6.75 6.8125 C7.30528358 9.99339735 7.26395016 13.09172872 7.1875 16.3125 C7.19458984 17.15425781 7.20167969 17.99601562 7.20898438 18.86328125 C7.14535477 25.07940391 5.87157823 28.43376077 1.6875 33.125 C-2.60489367 35.59084317 -6.41215059 35.58655591 -11.25 34.8125 C-15.37996444 32.74751778 -17.54091276 31.0651425 -19.25 26.8125 C-19.66035128 23.50962813 -19.57443772 20.200848 -19.5625 16.875 C-19.57861328 15.98103516 -19.59472656 15.08707031 -19.61132812 14.16601562 C-19.61498986 9.23366315 -19.49500977 5.79429943 -16.25 1.8125 C-11.23448572 -2.34321183 -5.82842003 -2.12961501 0 0 Z " fill="#0C64E5" transform="translate(284.25,22.1875)"/>
<path d="M0 0 C3.93541819 2.04058721 6.86588239 4.10584862 9 8 C9.44792174 11.31768359 9.41819658 14.59456438 9.375 17.9375 C9.38660156 18.83146484 9.39820313 19.72542969 9.41015625 20.64648438 C9.38820823 25.57381484 9.2223478 29.01714676 6 33 C2.21828205 36.32332789 -1.62317335 36.62308726 -6.48828125 36.4921875 C-10.66521636 35.67369011 -13.38908238 33.28161205 -16 30 C-17.37304046 25.88087862 -17.3033389 22.00345265 -17.375 17.6875 C-17.41238281 16.84509766 -17.44976562 16.00269531 -17.48828125 15.13476562 C-17.54863336 10.84641317 -17.42500055 7.92979719 -14.6640625 4.51953125 C-9.79428574 -0.08604941 -6.49952043 -0.91104389 0 0 Z " fill="#0C64E5" transform="translate(208,21)"/>
<path d="M0 0 C14.85 0 29.7 0 45 0 C45 1.65 45 3.3 45 5 C41.7 5 38.4 5 35 5 C35 15.23 35 25.46 35 36 C33.35 36 31.7 36 30 36 C30 25.77 30 15.54 30 5 C22.08 5 14.16 5 6 5 C6 8.3 6 11.6 6 15 C11.28 15 16.56 15 22 15 C22 16.65 22 18.3 22 20 C16.72 20 11.44 20 6 20 C6 25.28 6 30.56 6 36 C4.02 36 2.04 36 0 36 C0 24.12 0 12.24 0 0 Z " fill="#176BE6" transform="translate(219,21)"/>
<path d="M0 0 C18 0 18 0 22.625 2.4375 C24.85853832 5.00576477 25.46750273 7.18920859 25.6875 10.5625 C25.37309743 14.83551673 23.73268484 16.73840841 21 20 C21.08885 23.03344954 21.08885 23.03344954 22 26 C22.185625 26.94875 22.37125 27.8975 22.5625 28.875 C22.706875 29.57625 22.85125 30.2775 23 31 C21.35 31 19.7 31 18 31 C15 25.375 15 25.375 15 22 C12.03 22 9.06 22 6 22 C6 26.62 6 31.24 6 36 C4.02 36 2.04 36 0 36 C0 24.12 0 12.24 0 0 Z " fill="#146AE6" transform="translate(130,21)"/>
<path d="M0 0 C1.65 0 3.3 0 5 0 C6.95703125 1.984375 6.95703125 1.984375 8.8125 4.75 C9.48925781 5.74128906 10.16601562 6.73257812 10.86328125 7.75390625 C11.56839844 8.82511719 12.27351563 9.89632813 13 11 C13.76305934 12.13496513 14.52738871 13.26907741 15.29296875 14.40234375 C17.21119864 17.25762045 19.10756861 20.1275595 21 23 C21.33 15.41 21.66 7.82 22 0 C23.98 0 25.96 0 28 0 C28 11.88 28 23.76 28 36 C23 36 23 36 21.50195312 34.75 C20.89770508 33.88375 20.89770508 33.88375 20.28125 33 C19.82363281 32.35933594 19.36601562 31.71867187 18.89453125 31.05859375 C18.43433594 30.37925781 17.97414063 29.69992188 17.5 29 C17.03980469 28.35160156 16.57960938 27.70320313 16.10546875 27.03515625 C12.88529709 22.45434868 9.97626323 17.76202116 7 13 C6.67 20.59 6.34 28.18 6 36 C4.02 36 2.04 36 0 36 C0 24.12 0 12.24 0 0 Z " fill="#1F71E7" transform="translate(293,21)"/>
<path d="M0 0 C1.65 0 3.3 0 5 0 C7.03637695 2.203125 7.03637695 2.203125 8.98828125 5.25 C9.69404297 6.3328125 10.39980469 7.415625 11.12695312 8.53125 C11.85584907 9.68726029 12.58435982 10.84351353 13.3125 12 C14.05894303 13.15728605 14.80697248 14.31355051 15.55664062 15.46875 C17.38674177 18.302455 19.19541142 21.14997996 21 24 C21.33 16.08 21.66 8.16 22 0 C23.65 0 25.3 0 27 0 C27 11.88 27 23.76 27 36 C25.35 36 23.7 36 22 36 C19.96362305 33.796875 19.96362305 33.796875 18.01171875 30.75 C17.30595703 29.6671875 16.60019531 28.584375 15.87304688 27.46875 C15.14415093 26.31273971 14.41564018 25.15648647 13.6875 24 C12.94105697 22.84271395 12.19302752 21.68644949 11.44335938 20.53125 C9.61325823 17.697545 7.80458858 14.85002004 6 12 C5.67 17.94 5.34 23.88 5 30 C3.35 30 1.7 30 0 30 C0 20.1 0 10.2 0 0 Z " fill="#0962E5" transform="translate(47,21)"/>
<path d="M0 0 C0.91120605 0.01047363 1.82241211 0.02094727 2.76123047 0.03173828 C3.74736328 0.03818359 4.73349609 0.04462891 5.74951172 0.05126953 C7.29832031 0.07640625 7.29832031 0.07640625 8.87841797 0.10205078 C9.91869141 0.11107422 10.95896484 0.12009766 12.03076172 0.12939453 C14.60520889 0.15301331 17.17920009 0.18594929 19.75341797 0.22705078 C19.75341797 1.87705078 19.75341797 3.52705078 19.75341797 5.22705078 C13.48341797 5.22705078 7.21341797 5.22705078 0.75341797 5.22705078 C0.75341797 8.52705078 0.75341797 11.82705078 0.75341797 15.22705078 C6.03341797 15.22705078 11.31341797 15.22705078 16.75341797 15.22705078 C16.75341797 16.87705078 16.75341797 18.52705078 16.75341797 20.22705078 C11.47341797 20.22705078 6.19341797 20.22705078 0.75341797 20.22705078 C0.75341797 23.85705078 0.75341797 27.48705078 0.75341797 31.22705078 C7.02341797 31.22705078 13.29341797 31.22705078 19.75341797 31.22705078 C19.75341797 32.87705078 19.75341797 34.52705078 19.75341797 36.22705078 C16.31598879 36.28507776 12.87868544 36.32065564 9.44091797 36.35205078 C8.46445312 36.36880859 7.48798828 36.38556641 6.48193359 36.40283203 C5.54414063 36.40927734 4.60634766 36.41572266 3.64013672 36.42236328 C2.77606201 36.43283691 1.9119873 36.44331055 1.02172852 36.45410156 C-1.24658203 36.22705078 -1.24658203 36.22705078 -4.24658203 34.22705078 C-4.61889648 31.09423828 -4.61889648 31.09423828 -4.60986328 27.10205078 C-4.61036179 26.39935059 -4.61086029 25.69665039 -4.6113739 24.97265625 C-4.60903264 23.48646213 -4.59930091 22.00026411 -4.58276367 20.51416016 C-4.55917268 18.23580573 -4.56220137 15.95862125 -4.56884766 13.68017578 C-4.51773215 0.45658454 -4.51773215 0.45658454 0 0 Z " fill="#1168E5" transform="translate(327.24658203125,20.77294921875)"/>
<path d="M0 0 C0.91120605 0.01047363 1.82241211 0.02094727 2.76123047 0.03173828 C3.74736328 0.03818359 4.73349609 0.04462891 5.74951172 0.05126953 C7.29832031 0.07640625 7.29832031 0.07640625 8.87841797 0.10205078 C9.91869141 0.11107422 10.95896484 0.12009766 12.03076172 0.12939453 C14.60520889 0.15301331 17.17920009 0.18594929 19.75341797 0.22705078 C19.75341797 1.87705078 19.75341797 3.52705078 19.75341797 5.22705078 C13.48341797 5.22705078 7.21341797 5.22705078 0.75341797 5.22705078 C0.75341797 8.52705078 0.75341797 11.82705078 0.75341797 15.22705078 C6.03341797 15.22705078 11.31341797 15.22705078 16.75341797 15.22705078 C16.75341797 16.87705078 16.75341797 18.52705078 16.75341797 20.22705078 C11.47341797 20.22705078 6.19341797 20.22705078 0.75341797 20.22705078 C0.75341797 23.85705078 0.75341797 27.48705078 0.75341797 31.22705078 C7.02341797 31.22705078 13.29341797 31.22705078 19.75341797 31.22705078 C19.75341797 32.87705078 19.75341797 34.52705078 19.75341797 36.22705078 C16.31598879 36.28507776 12.87868544 36.32065564 9.44091797 36.35205078 C8.46445313 36.36880859 7.48798828 36.38556641 6.48193359 36.40283203 C5.54414062 36.40927734 4.60634766 36.41572266 3.64013672 36.42236328 C2.77606201 36.43283691 1.9119873 36.44331055 1.02172852 36.45410156 C-1.24658203 36.22705078 -1.24658203 36.22705078 -4.24658203 34.22705078 C-4.61889648 31.09423828 -4.61889648 31.09423828 -4.60986328 27.10205078 C-4.61036179 26.39935059 -4.61086029 25.69665039 -4.6113739 24.97265625 C-4.60903264 23.48646213 -4.59930091 22.00026411 -4.58276367 20.51416016 C-4.55917268 18.23580573 -4.56220137 15.95862125 -4.56884766 13.68017578 C-4.51773215 0.45658454 -4.51773215 0.45658454 0 0 Z " fill="#0F66E5" transform="translate(108.24658203125,20.77294921875)"/>
<path d="M0 0 C0.66 -0.0103125 1.32 -0.020625 2 -0.03125 C5.06652171 0.78329483 6.15587959 1.91580495 8 4.5 C8.40091196 7.46851721 8.56058386 9.98151228 8.5 12.9375 C8.51546875 13.68837891 8.5309375 14.43925781 8.546875 15.21289062 C8.51974237 19.06911552 8.22818811 21.11568318 6.21875 24.5 C3.88028651 26.60791076 3.08317548 27.16487106 0 27.0625 C-0.66 27.06378906 -1.32 27.06507812 -2 27.06640625 C-5.07058323 26.19680748 -6.15396305 25.11926734 -8 22.5 C-8.58509276 19.48745089 -8.55865972 16.56008218 -8.5 13.5 C-8.51546875 12.69304688 -8.5309375 11.88609375 -8.546875 11.0546875 C-8.52173107 7.24538218 -8.45134431 5.14138403 -6.21875 1.96875 C-3.88682437 0.42508092 -2.76332336 -0.04317693 0 0 Z " fill="#FBFCFE" transform="translate(278,25.5)"/>
<path d="M0 0 C0.66 -0.0103125 1.32 -0.020625 2 -0.03125 C5.09122953 0.78985784 6.15403697 1.87678938 8 4.5 C8.58502425 7.51257333 8.55866003 10.43990164 8.5 13.5 C8.51546875 14.30695312 8.5309375 15.11390625 8.546875 15.9453125 C8.52173943 19.75335134 8.45293433 21.85734976 6.21875 25.02734375 C3.90172414 26.56522887 2.75070744 27.06787248 0 27.0625 C-0.66 27.08441406 -1.32 27.10632813 -2 27.12890625 C-5.27273808 26.09978353 -6.27012748 24.41346951 -8 21.5 C-8.56125739 18.62681057 -8.56014362 15.85697146 -8.5 12.9375 C-8.51546875 12.18275391 -8.5309375 11.42800781 -8.546875 10.65039062 C-8.5219088 7.10831072 -8.29828682 4.91799403 -6.21875 2.00390625 C-3.88302104 0.42070968 -2.78557713 -0.04352464 0 0 Z " fill="#FBFDFE" transform="translate(204,25.5)"/>
<path d="M0 0 C8.58 0 17.16 0 26 0 C26 1.65 26 3.3 26 5 C22.7 5 19.4 5 16 5 C16 15.23 16 25.46 16 36 C14.02 36 12.04 36 10 36 C10 25.77 10 15.54 10 5 C6.7 5 3.4 5 0 5 C0 3.35 0 1.7 0 0 Z " fill="#1E70E7" transform="translate(76,21)"/>
<path d="M0 0 C0.83265381 0.00523682 1.66530762 0.01047363 2.52319336 0.01586914 C3.42231445 0.0190918 4.32143555 0.02231445 5.24780273 0.02563477 C6.66609375 0.03820312 6.66609375 0.03820312 8.11303711 0.05102539 C9.06243164 0.05553711 10.01182617 0.06004883 10.98999023 0.06469727 C13.34356776 0.07652429 15.69702188 0.09300514 18.05053711 0.11352539 C18.05053711 0.77352539 18.05053711 1.43352539 18.05053711 2.11352539 C12.11053711 2.11352539 6.17053711 2.11352539 0.05053711 2.11352539 C0.05053711 4.09352539 0.05053711 6.07352539 0.05053711 8.11352539 C1.58774414 8.06131836 1.58774414 8.06131836 3.15600586 8.00805664 C4.51666647 7.97990504 5.87734491 7.95260635 7.23803711 7.92602539 C7.91157227 7.90088867 8.58510742 7.87575195 9.27905273 7.84985352 C13.75909378 7.78429194 16.51091345 8.33747685 20.05053711 11.11352539 C22.52146202 14.81991275 22.60461548 17.81522043 22.05053711 22.11352539 C20.41366526 25.6990542 19.36081128 26.90667594 16.05053711 29.11352539 C13.94343567 29.35403442 13.94343567 29.35403442 11.48730469 29.34057617 C10.56657669 29.34042511 9.64584869 29.34027405 8.69721985 29.34011841 C7.70650986 29.32979584 6.71579987 29.31947327 5.69506836 29.30883789 C4.16990852 29.30459305 4.16990852 29.30459305 2.61393738 29.30026245 C-0.63648197 29.28905922 -3.8866267 29.26395425 -7.13696289 29.23852539 C-9.33943287 29.22849578 -11.54190717 29.2193699 -13.74438477 29.21118164 C-19.14617132 29.18911944 -24.54779749 29.15564047 -29.94946289 29.11352539 C-29.94946289 28.12352539 -29.94946289 27.13352539 -29.94946289 26.11352539 C-29.37761261 26.10543854 -28.80576233 26.09735168 -28.21658325 26.08901978 C-22.2794929 26.00314591 -16.34274308 25.90365066 -10.40600586 25.79614258 C-8.18861599 25.75779405 -5.97116266 25.72295168 -3.75366211 25.69165039 C-0.571302 25.64612713 2.61061893 25.5881122 5.79272461 25.52758789 C6.78859589 25.51603668 7.78446716 25.50448547 8.81051636 25.49258423 C10.19172165 25.46277969 10.19172165 25.46277969 11.60083008 25.43237305 C12.81994583 25.41238754 12.81994583 25.41238754 14.06369019 25.39199829 C16.28093769 25.28453458 16.28093769 25.28453458 18.05053711 23.11352539 C18.36892111 20.97366219 18.36892111 20.97366219 18.30053711 18.61352539 C18.30569336 17.81946289 18.31084961 17.02540039 18.31616211 16.20727539 C18.2399362 13.89459788 18.2399362 13.89459788 16.05053711 12.11352539 C13.1962525 11.85826416 10.4098694 11.69334255 7.55053711 11.61352539 C-0.67919262 11.38379566 -0.67919262 11.38379566 -2.94946289 9.11352539 C-3.27698523 6.39897584 -3.08030539 3.8612178 -2.94946289 1.11352539 C-1.94946289 0.11352539 -1.94946289 0.11352539 0 0 Z " fill="#166BE6" transform="translate(166.949462890625,27.886474609375)"/>
<path d="M0 0 C0.98613281 0.00322266 1.97226562 0.00644531 2.98828125 0.00976562 C4.02082031 0.01814453 5.05335937 0.02652344 6.1171875 0.03515625 C7.67759766 0.04192383 7.67759766 0.04192383 9.26953125 0.04882812 C11.84380712 0.06063673 14.41796896 0.0771055 16.9921875 0.09765625 C16.9921875 1.08765625 16.9921875 2.07765625 16.9921875 3.09765625 C16.37174561 3.11747559 15.75130371 3.13729492 15.11206055 3.15771484 C12.30084213 3.2529747 9.49036584 3.36264927 6.6796875 3.47265625 C5.21499023 3.5190625 5.21499023 3.5190625 3.72070312 3.56640625 C2.31401367 3.62441406 2.31401367 3.62441406 0.87890625 3.68359375 C0.01483154 3.71501465 -0.84924316 3.74643555 -1.73950195 3.77880859 C-4.28523695 3.96953662 -4.28523695 3.96953662 -7.0078125 6.09765625 C-7.4574532 8.58179316 -7.4574532 8.58179316 -7.37109375 11.47265625 C-7.37044922 12.54 -7.36980469 13.60734375 -7.36914062 14.70703125 C-7.35302734 15.8259375 -7.33691406 16.94484375 -7.3203125 18.09765625 C-7.32514648 19.77601562 -7.32514648 19.77601562 -7.33007812 21.48828125 C-7.70601316 27.36013087 -7.70601316 27.36013087 -5.0078125 32.09765625 C-3.12503194 32.40632199 -3.12503194 32.40632199 -0.95703125 32.36889648 C-0.12276611 32.3790831 0.71149902 32.38926971 1.57104492 32.39976501 C2.47314697 32.40190506 3.37524902 32.4040451 4.3046875 32.40625 C6.20312816 32.43140306 8.10156559 32.45680118 10 32.48242188 C13.00227066 32.51122359 16.0044853 32.53523294 19.00683594 32.55395508 C21.8980798 32.57552799 24.78866818 32.61495467 27.6796875 32.65625 C28.58178955 32.65636581 29.4838916 32.65648163 30.41333008 32.65660095 C31.66472778 32.67660912 31.66472778 32.67660912 32.94140625 32.69702148 C33.67705811 32.70209213 34.41270996 32.70716278 35.1706543 32.71238708 C36.9921875 33.09765625 36.9921875 33.09765625 38.9921875 36.09765625 C32.81751164 36.19663989 26.64329907 36.26917985 20.46801758 36.31738281 C18.36800083 36.33748022 16.26803992 36.36476291 14.16821289 36.39941406 C11.14715792 36.44801395 8.12684373 36.47064387 5.10546875 36.48828125 C3.70050896 36.51924896 3.70050896 36.51924896 2.26716614 36.55084229 C-1.98092399 36.55229986 -4.36670673 36.4813101 -8.07739258 34.26074219 C-12.22703234 29.61096246 -11.26600136 23.61722555 -11.3203125 17.72265625 C-11.34931641 16.68109375 -11.37832031 15.63953125 -11.40820312 14.56640625 C-11.47214965 6.87314716 -11.47214965 6.87314716 -9.11328125 2.93359375 C-5.91119473 0.14142183 -4.16599183 -0.02394248 0 0 Z " fill="#1A6EE6" transform="translate(28.0078125,20.90234375)"/>
<path d="M0 0 C11.47897324 -0.37028946 11.47897324 -0.37028946 13.86328125 1.32421875 C15.63321345 3.93350024 15.38278316 5.9377347 15 9 C13.86328125 10.67578125 13.86328125 10.67578125 12 12 C7.96740923 12.40487859 4.06287095 12.13106035 0 12 C0 8.04 0 4.08 0 0 Z " fill="#F7F9FE" transform="translate(135,26)"/>
<path d="M0 0 C1.30195313 0.00322266 2.60390625 0.00644531 3.9453125 0.00976562 C5.32552149 0.01812159 6.70572982 0.02658654 8.0859375 0.03515625 C9.47395676 0.04017124 10.86197772 0.04473415 12.25 0.04882812 C15.65368882 0.06064649 19.05729189 0.07712191 22.4609375 0.09765625 C22.4609375 1.08765625 22.4609375 2.07765625 22.4609375 3.09765625 C21.56262207 3.11223877 20.66430664 3.12682129 19.73876953 3.1418457 C16.4098716 3.20285322 13.08180867 3.27699253 9.75341797 3.36010742 C8.31212408 3.39338803 6.87069887 3.42141029 5.42919922 3.4440918 C3.35847953 3.47758245 1.28896657 3.52988925 -0.78125 3.5859375 C-2.0276123 3.61212158 -3.27397461 3.63830566 -4.55810547 3.6652832 C-5.54182129 3.80796631 -6.52553711 3.95064941 -7.5390625 4.09765625 C-9.47301251 6.99858127 -9.84038191 7.99440362 -10.1640625 11.28515625 C-10.2878125 12.54328125 -10.4115625 13.80140625 -10.5390625 15.09765625 C-11.1990625 15.09765625 -11.8590625 15.09765625 -12.5390625 15.09765625 C-13.16711554 5.9559954 -13.16711554 5.9559954 -10.6640625 2.53515625 C-6.88044488 -0.02434979 -4.57906148 -0.01990896 0 0 Z " fill="#2373E7" transform="translate(170.5390625,20.90234375)"/>
<path d="M0 0 C1.18613892 0.00785522 1.18613892 0.00785522 2.39624023 0.01586914 C3.67724609 0.02070313 3.67724609 0.02070313 4.98413086 0.02563477 C5.88196289 0.03401367 6.77979492 0.04239258 7.70483398 0.05102539 C8.6065332 0.05553711 9.50823242 0.06004883 10.43725586 0.06469727 C12.67234712 0.07652315 14.90730835 0.09300319 17.14233398 0.11352539 C17.14233398 0.77352539 17.14233398 1.43352539 17.14233398 2.11352539 C8.72733398 2.60852539 8.72733398 2.60852539 0.14233398 3.11352539 C-0.18766602 4.76352539 -0.51766602 6.41352539 -0.85766602 8.11352539 C4.09233398 8.11352539 9.04233398 8.11352539 14.14233398 8.11352539 C14.14233398 9.10352539 14.14233398 10.09352539 14.14233398 11.11352539 C11.49643384 11.14037218 8.85080303 11.16028896 6.20483398 11.17602539 C5.07271484 11.18859375 5.07271484 11.18859375 3.91772461 11.20141602 C1.99239085 11.2100498 0.06697818 11.16576872 -1.85766602 11.11352539 C-2.85766602 10.11352539 -2.85766602 10.11352539 -2.99047852 8.08227539 C-2.98790039 7.26758789 -2.98532227 6.45290039 -2.98266602 5.61352539 C-2.98524414 4.79883789 -2.98782227 3.98415039 -2.99047852 3.14477539 C-2.81824452 0.5106084 -2.64114422 0.16140519 0 0 Z " fill="#1369E6" transform="translate(26.857666015625,27.886474609375)"/>
<path d="M0 0 C0.99 0 1.98 0 3 0 C2.125 3.875 2.125 3.875 1 5 C-0.56172745 5.08685603 -2.12729344 5.10702219 -3.69140625 5.09765625 C-4.63564453 5.09443359 -5.57988281 5.09121094 -6.55273438 5.08789062 C-7.54595703 5.07951172 -8.53917969 5.07113281 -9.5625 5.0625 C-10.55958984 5.05798828 -11.55667969 5.05347656 -12.58398438 5.04882812 C-15.05604849 5.03700007 -17.52799518 5.02051849 -20 5 C-20 4.01 -20 3.02 -20 2 C-13.4 2 -6.8 2 0 2 C0 1.34 0 0.68 0 0 Z " fill="#2B78E8" transform="translate(178,46)"/>
<path d="M0 0 C7.26 0 14.52 0 22 0 C22 0.99 22 1.98 22 3 C14.41 3 6.82 3 -1 3 C-0.67 2.01 -0.34 1.02 0 0 Z " fill="#2474E7" transform="translate(23,21)"/>
<path d="M0 0 C6.6 0 13.2 0 20 0 C20 0.66 20 1.32 20 2 C14.06 2.33 8.12 2.66 2 3 C1.67 4.65 1.34 6.3 1 8 C0.67 8 0.34 8 0 8 C0 5.36 0 2.72 0 0 Z " fill="#015DE4" transform="translate(165,28)"/>
<path d="M0 0 C0.99 0.33 1.98 0.66 3 1 C4.33363703 1.14403348 5.67218046 1.24590423 7.01171875 1.31640625 C8.14770508 1.37924805 8.14770508 1.37924805 9.30664062 1.44335938 C10.48516602 1.50233398 10.48516602 1.50233398 11.6875 1.5625 C12.88342773 1.62727539 12.88342773 1.62727539 14.10351562 1.69335938 C16.06881447 1.79927368 18.03438496 1.90012551 20 2 C20 2.66 20 3.32 20 4 C13.73 4 7.46 4 1 4 C0.67 2.68 0.34 1.36 0 0 Z " fill="#025EE4" transform="translate(24,46)"/>
<path d="M0 0 C6.27 0 12.54 0 19 0 C19 0.66 19 1.32 19 2 C12.4 2.33 5.8 2.66 -1 3 C-0.67 2.01 -0.34 1.02 0 0 Z " fill="#025EE4" transform="translate(25,28)"/>
<path d="M0 0 C2 1 2 1 3 3 C2.35546875 3.44859375 1.7109375 3.8971875 1.046875 4.359375 C-2.0611305 8.36893935 -1.67384692 12.30697279 -1.75 17.25 C-1.77964844 18.18585937 -1.80929688 19.12171875 -1.83984375 20.0859375 C-1.91039804 22.39071092 -1.96316252 24.69448168 -2 27 C-2.33 27 -2.66 27 -3 27 C-3.08696177 23.06263877 -3.14037835 19.12552372 -3.1875 15.1875 C-3.21263672 14.06794922 -3.23777344 12.94839844 -3.26367188 11.79492188 C-3.27333984 10.72177734 -3.28300781 9.64863281 -3.29296875 8.54296875 C-3.3086792 7.55321045 -3.32438965 6.56345215 -3.34057617 5.54370117 C-2.95047123 2.6300787 -2.27991712 1.77502198 0 0 Z " fill="#0C64E5" transform="translate(21,22)"/>
<path d="M0 0 C0.99 0 1.98 0 3 0 C3 2.64 3 5.28 3 8 C2.01 7.67 1.02 7.34 0 7 C0 4.69 0 2.38 0 0 Z " fill="#2574E8" transform="translate(186,42)"/>
</svg>
